REM DIRINDEX 1\2,1\3\7,1\3\8,1\4\9,1\4\10,1\4\11,1\5\12,1\5\13,1\5\14,1\6\15,1\6\16,1\6\17
REM DIRNAME "folder01","folder02","folder03","folder04","folder05","folder06","folder07","folder08","folder09","folder10","folder11","folder12","folder13","folder14","folder15","folder16","folder17"
TITLE ""
FILE "2Q_t_0335-0352.mp3" MP3
  TRACK 01 AUDIO
    TITLE "0:"
    INDEX 01 00:00:00
  TRACK 02 AUDIO
    TITLE "7:cjc174_2416"
    INDEX 01 00:00:16
  TRACK 03 AUDIO
    TITLE "0:"
    INDEX 01 00:01:22
  TRACK 04 AUDIO
    TITLE "8:cjc174_2417"
    INDEX 01 00:01:70
  TRACK 05 AUDIO
    TITLE "0:"
    INDEX 01 00:05:27
  TRACK 06 AUDIO
    TITLE "7:cjc174_2418"
    INDEX 01 00:05:72
  TRACK 07 AUDIO
    TITLE "0:"
    INDEX 01 00:07:36
  TRACK 08 AUDIO
    TITLE "8:cjc174_2419"
    INDEX 01 00:08:12
  TRACK 09 AUDIO
    TITLE "0:"
    INDEX 01 00:10:67
  TRACK 10 AUDIO
    TITLE "7:cjc174_2420"
    INDEX 01 00:11:36
  TRACK 11 AUDIO
    TITLE "0:"
    INDEX 01 00:12:51
  TRACK 12 AUDIO
    TITLE "8:cjc174_2421"
    INDEX 01 00:13:25
  TRACK 13 AUDIO
    TITLE "0:"
    INDEX 01 00:15:22
  TRACK 14 AUDIO
    TITLE "7:cjc174_2422"
    INDEX 01 00:15:67
  TRACK 15 AUDIO
    TITLE "0:"
    INDEX 01 00:16:64
  TRACK 16 AUDIO
    TITLE "8:cjc174_2423"
    INDEX 01 00:17:36
  TRACK 17 AUDIO
    TITLE "0:"
    INDEX 01 00:19:64
  TRACK 18 AUDIO
    TITLE "7:cjc174_2424"
    INDEX 01 00:20:33
  TRACK 19 AUDIO
    TITLE "0:"
    INDEX 01 00:21:40
  TRACK 20 AUDIO
    TITLE "8:cjc174_2425"
    INDEX 01 00:22:14
  TRACK 21 AUDIO
    TITLE "0:"
    INDEX 01 00:24:50
  TRACK 22 AUDIO
    TITLE "7:cjc174_2426"
    INDEX 01 00:25:20
  TRACK 23 AUDIO
    TITLE "0:"
    INDEX 01 00:26:37
  TRACK 24 AUDIO
    TITLE "8:cjc174_2427"
    INDEX 01 00:27:07
  TRACK 25 AUDIO
    TITLE "0:"
    INDEX 01 00:29:53
  TRACK 26 AUDIO
    TITLE "7:cjc174_2428"
    INDEX 01 00:30:21
  TRACK 27 AUDIO
    TITLE "0:"
    INDEX 01 00:31:48
  TRACK 28 AUDIO
    TITLE "8:cjc174_2429"
    INDEX 01 00:32:22
  TRACK 29 AUDIO
    TITLE "0:"
    INDEX 01 00:35:71
  TRACK 30 AUDIO
    TITLE "7:cjc174_2430"
    INDEX 01 00:36:39
  TRACK 31 AUDIO
    TITLE "0:"
    INDEX 01 00:37:64
  TRACK 32 AUDIO
    TITLE "8:cjc174_2431"
    INDEX 01 00:38:42
  TRACK 33 AUDIO
    TITLE "0:"
    INDEX 01 00:40:27
  TRACK 34 AUDIO
    TITLE "7:cjc174_2432"
    INDEX 01 00:40:73
  TRACK 35 AUDIO
    TITLE "0:"
    INDEX 01 00:42:28
  TRACK 36 AUDIO
    TITLE "8:cjc174_2433"
    INDEX 01 00:43:10
  TRACK 37 AUDIO
    TITLE "0:"
    INDEX 01 00:45:33
  TRACK 38 AUDIO
    TITLE "7:cjc174_2434"
    INDEX 01 00:46:03
  TRACK 39 AUDIO
    TITLE "0:"
    INDEX 01 00:47:31
  TRACK 40 AUDIO
    TITLE "8:cjc174_2435"
    INDEX 01 00:48:03
  TRACK 41 AUDIO
    TITLE "0:"
    INDEX 01 00:50:02
  TRACK 42 AUDIO
    TITLE "7:cjc174_2436"
    INDEX 01 00:50:47
  TRACK 43 AUDIO
    TITLE "0:"
    INDEX 01 00:51:66
  TRACK 44 AUDIO
    TITLE "8:cjc174_2437"
    INDEX 01 00:52:42
  TRACK 45 AUDIO
    TITLE "0:"
    INDEX 01 00:54:69
  TRACK 46 AUDIO
    TITLE "7:cjc174_2438"
    INDEX 01 00:55:41
  TRACK 47 AUDIO
    TITLE "0:"
    INDEX 01 00:56:36
  TRACK 48 AUDIO
    TITLE "8:cjc174_2439"
    INDEX 01 00:57:18
  TRACK 49 AUDIO
    TITLE "0:"
    INDEX 01 01:00:20
  TRACK 50 AUDIO
    TITLE "7:cjc174_2440"
    INDEX 01 01:00:65
  TRACK 51 AUDIO
    TITLE "0:"
    INDEX 01 01:02:15
  TRACK 52 AUDIO
    TITLE "8:cjc174_2441"
    INDEX 01 01:02:64
  TRACK 53 AUDIO
    TITLE "0:"
    INDEX 01 01:04:18
  TRACK 54 AUDIO
    TITLE "7:cjc174_2442"
    INDEX 01 01:04:63
  TRACK 55 AUDIO
    TITLE "0:"
    INDEX 01 01:06:37
  TRACK 56 AUDIO
    TITLE "8:cjc174_2443"
    INDEX 01 01:07:05
  TRACK 57 AUDIO
    TITLE "0:"
    INDEX 01 01:10:03
  TRACK 58 AUDIO
    TITLE "7:cjc174_2444"
    INDEX 01 01:10:46
  TRACK 59 AUDIO
    TITLE "0:"
    INDEX 01 01:11:48
  TRACK 60 AUDIO
    TITLE "8:cjc174_2445"
    INDEX 01 01:12:24
  TRACK 61 AUDIO
    TITLE "0:"
    INDEX 01 01:13:35
  TRACK 62 AUDIO
    TITLE "7:cjc174_2446"
    INDEX 01 01:14:07
  TRACK 63 AUDIO
    TITLE "0:"
    INDEX 01 01:15:24
  TRACK 64 AUDIO
    TITLE "8:cjc174_2447"
    INDEX 01 01:15:69
  TRACK 65 AUDIO
    TITLE "0:"
    INDEX 01 01:20:49
  TRACK 66 AUDIO
    TITLE "7:cjc174_2448"
    INDEX 01 01:21:21
  TRACK 67 AUDIO
    TITLE "0:"
    INDEX 01 01:22:57
  TRACK 68 AUDIO
    TITLE "8:cjc174_2449"
    INDEX 01 01:23:37
  TRACK 69 AUDIO
    TITLE "0:"
    INDEX 01 01:24:38
  TRACK 70 AUDIO
    TITLE "7:cjc174_2450"
    INDEX 01 01:25:09
  TRACK 71 AUDIO
    TITLE "0:"
    INDEX 01 01:26:10
  TRACK 72 AUDIO
    TITLE "8:cjc174_2451"
    INDEX 01 01:26:65
  TRACK 73 AUDIO
    TITLE "0:"
    INDEX 01 01:27:68
